<?xml version="1.0" encoding="utf-8"?>
<!-- Generator: Adobe Illustrator 23.0.1, SVG Export Plug-In . SVG Version: 6.00 Build 0)  -->
<svg version="1.1" xmlns="http://www.w3.org/2000/svg" xmlns:xlink="http://www.w3.org/1999/xlink" x="0px" y="0px"
	 viewBox="0 0 853.5 770" style="enable-background:new 0 0 853.5 770;" xml:space="preserve">
<style type="text/css">
	.st0{fill:url(#SVGID_1_);}
	.st1{fill:#6C63FF;}
	.st2{fill:url(#SVGID_2_);}
	.st3{fill:#E0E0E0;}
	.st4{fill:url(#SVGID_3_);}
	.st5{fill:#FFFFFF;}
	.st6{fill:url(#SVGID_4_);}
	.st7{fill:#FFFFFF;stroke:#FFFFFF;stroke-miterlimit:10;}
	.st8{fill:url(#SVGID_5_);}
	.st9{fill:#69F0AE;}
	.st10{fill:url(#SVGID_6_);}
	.st11{opacity:0.2;enable-background:new    ;}
	.st12{opacity:0.6;}
	.st13{fill:#FFFFFF;stroke:#000000;stroke-miterlimit:10;}
</style>
<g id="Camada_1">
	<title>files</title>
	
		<linearGradient id="SVGID_1_" gradientUnits="userSpaceOnUse" x1="786.785" y1="-2.3724" x2="786.785" y2="667.6997" gradientTransform="matrix(0.9967 8.106875e-02 8.106875e-02 -0.9967 -229.424 683.925)">
		<stop  offset="0" style="stop-color:#808080;stop-opacity:0.25"/>
		<stop  offset="0.54" style="stop-color:#808080;stop-opacity:0.12"/>
		<stop  offset="1" style="stop-color:#808080;stop-opacity:0.1"/>
	</linearGradient>
	<polygon class="st0" points="799.6,770 310,729.8 363.9,62.3 853.5,102.4 	"/>
	<polygon class="st1" points="793.7,760.5 317.3,721.4 369.8,71.8 846.2,110.9 	"/>
	
		<linearGradient id="SVGID_2_" gradientUnits="userSpaceOnUse" x1="611.5789" y1="-79.3606" x2="611.5789" y2="590.9333" gradientTransform="matrix(0.9821 -0.1886 -0.1886 -0.9821 -34.4392 742.0742)">
		<stop  offset="0" style="stop-color:#808080;stop-opacity:0.25"/>
		<stop  offset="0.54" style="stop-color:#808080;stop-opacity:0.12"/>
		<stop  offset="1" style="stop-color:#808080;stop-opacity:0.1"/>
	</linearGradient>
	<polygon class="st2" points="821.9,657.8 339.4,751.1 214,93.3 696.4,0 	"/>
	<polygon class="st3" points="813.7,650.2 344.3,741 222.2,100.9 691.6,10.1 	"/>
	
		<linearGradient id="SVGID_3_" gradientUnits="userSpaceOnUse" x1="517.93" y1="52.54" x2="517.93" y2="722.32" gradientTransform="matrix(1 0 0 -1 0 772)">
		<stop  offset="0" style="stop-color:#808080;stop-opacity:0.25"/>
		<stop  offset="0.54" style="stop-color:#808080;stop-opacity:0.12"/>
		<stop  offset="1" style="stop-color:#808080;stop-opacity:0.1"/>
	</linearGradient>
	<rect x="272.3" y="49.7" class="st4" width="491.2" height="669.8"/>
	<rect x="278.9" y="58.7" class="st5" width="478" height="651.7"/>
	
		<linearGradient id="SVGID_4_" gradientUnits="userSpaceOnUse" x1="-85.883" y1="1122.4336" x2="-79.4383" y2="968.3399" gradientTransform="matrix(-1 1.000000e-02 1.000000e-02 1 425.3399 -873.65)">
		<stop  offset="0" style="stop-color:#000000;stop-opacity:0.12"/>
		<stop  offset="0.55" style="stop-color:#000000;stop-opacity:9.000000e-02"/>
		<stop  offset="1" style="stop-color:#000000;stop-opacity:2.000000e-02"/>
	</linearGradient>
	<path class="st6" d="M440,171.1c0.5,43.6,36,78.5,79.3,78s78-36.3,77.5-79.9c-0.3-33.2-21.4-62.7-52.8-73.7l0.2,20.3
		c0.2,14.7-11.5,26.9-26.2,27.1l0,0c-14.7,0.1-26.7-11.7-26.9-26.4L491,96.2C459.9,108,439.6,138,440,171.1z"/>
	<path class="st1" d="M596.9,162.8c0-43.6-35.1-79-78.4-79s-78.4,35.4-78.4,79c-0.1,33.2,20.7,62.9,51.9,74.3v-20.3
		c0-14.7,11.9-26.6,26.5-26.7l0,0c14.7,0.1,26.6,12,26.5,26.7v20.4C576.2,225.8,596.9,196.1,596.9,162.8z"/>
	<ellipse class="st7" cx="518.5" cy="152" rx="30.1" ry="30.4"/>
	<path class="st7" d="M518.4,190.1L518.4,190.1c-14.7,0.1-26.6,12-26.5,26.7v20.4c17.2,6.2,35.9,6.2,53.1,0v-20.4
		C545,202.1,533.1,190.2,518.4,190.1z"/>
	<path class="st7" d="M488.1,150.3c-2.4-4.7-3.5-10-3.2-15.3c0.3-5.3,2.7-10.3,6.7-13.9c4.4-3.8,10.3-5.1,16.1-5.6
		s11.6-0.2,17.2-1.3c9.5-1.9,17.8-7.6,23-15.7c0.4,4.4,0.7,9-0.1,13.4s-3.1,8.7-6.9,11c4.6-2.1,4.1,2.9,3.1,5.9
		c2.3,2.8,7.8,3.2,8.1,6.8s0.2,7.3-1.2,10.6s0.1,9.1-3.4,9.4"/>
	<path class="st5" d="M542.6,122.3c0,0,21,1.9,6.1,33.3"/>
	
		<linearGradient id="SVGID_5_" gradientUnits="userSpaceOnUse" x1="356.175" y1="132.6" x2="356.175" y2="198" gradientTransform="matrix(1 0 0 -1 0 772)">
		<stop  offset="0" style="stop-color:#808080;stop-opacity:0.25"/>
		<stop  offset="0.54" style="stop-color:#808080;stop-opacity:0.12"/>
		<stop  offset="1" style="stop-color:#808080;stop-opacity:0.1"/>
	</linearGradient>
	<rect x="323.7" y="574" class="st8" width="64.9" height="65.4"/>
	<rect x="329.3" y="579.6" class="st1" width="53.7" height="54.1"/>
	<rect x="440.1" y="303.4" class="st9" width="156.7" height="11.3"/>
	<rect x="440.1" y="319.2" class="st3" width="264.2" height="11.3"/>
	<rect x="440.1" y="335" class="st3" width="264.2" height="11.3"/>
	<rect x="440.1" y="444.3" class="st9" width="156.7" height="11.3"/>
	<rect x="440.1" y="460.1" class="st3" width="264.2" height="11.3"/>
	<rect x="440.1" y="475.9" class="st3" width="264.2" height="11.3"/>
	<rect x="440.1" y="585.3" class="st1" width="156.7" height="11.3"/>
	<rect x="440.1" y="601.1" class="st3" width="264.2" height="11.3"/>
	<rect x="440.1" y="616.8" class="st3" width="264.2" height="11.3"/>
	
		<linearGradient id="SVGID_6_" gradientUnits="userSpaceOnUse" x1="296.009" y1="96.34" x2="296.009" y2="293.7" gradientTransform="matrix(1 0 0 -1 -173.24 707)">
		<stop  offset="0" style="stop-color:#808080;stop-opacity:0.25"/>
		<stop  offset="0.54" style="stop-color:#808080;stop-opacity:0.12"/>
		<stop  offset="1" style="stop-color:#808080;stop-opacity:0.1"/>
	</linearGradient>
	<path class="st10" d="M232.2,504.7h-36.6c-3.7-51.1-46-91.4-97.7-91.4c-54.1,0-98,44.2-98,98.7s43.9,98.7,98,98.7
		c47.5,0,87.1-34,96-79.2h38.2c7.4,0,13.4-6,13.4-13.4C245.6,510.7,239.6,504.7,232.2,504.7L232.2,504.7z"/>
	<path class="st5" d="M99.8,420.6c-50.1,0-90.7,40.9-90.7,91.3s40.6,91.3,90.7,91.3s90.7-40.9,90.7-91.3S149.9,420.6,99.8,420.6z
		 M99.8,589.8c-42.7,0-77.2-34.8-77.2-77.8s34.6-77.8,77.2-77.8s77.2,34.8,77.2,77.8S142.5,589.8,99.8,589.8L99.8,589.8z"/>
	<path class="st5" d="M182.7,505.2h42.7c6.1,0,11,4.9,11,11v2.8c0,6.1-4.9,11-11,11l0,0h-42.7l0,0V505.2L182.7,505.2z"/>
	<ellipse class="st1" cx="99.8" cy="512" rx="78.4" ry="78.9"/>
	<path class="st11" d="M108.6,482.5c-6.1,3.2-9.1,12-5,17.6c1.6,2.2,4,3.7,6.1,5.5s3.8,4.4,3.5,7.2c-0.4,1.7-1.1,3.2-2.3,4.5
		c-4.1,5.4-9.2,10.6-10.5,17.3c-1.2,6.1,1,12.4,4.6,17.5c2,2.9,4.7,5.5,8.1,6.5c3.8,1,7.8-0.3,11-2.6s5.5-5.5,7.9-8.6l5.5-7.2
		c1.5-2,3-4.1,3.2-6.6c0.2-4.3-3.8-7.5-5.2-11.5c-2.5-7.5,4.4-15.2,3.5-23.1C137.4,487.2,119.1,477,108.6,482.5z"/>
</g>
<g id="Camada_2" class="st12">
	<rect x="0" y="0" class="st13" width="853.6" height="770"/>
</g>
</svg>
